<svg id="bd2c3948-3d01-4a40-9d74-8a3c5f5fc201" data-name="Layer 1" xmlns="http://www.w3.org/2000/svg" width="82" height="82" viewBox="0 0 82 82"><defs><style>.e908865f-9bec-4aa6-8230-a498832d18b5{fill:none;stroke:#000;stroke-linecap:round;stroke-linejoin:round;stroke-width:2px;}</style></defs><path class="e908865f-9bec-4aa6-8230-a498832d18b5" d="M82.169,49.999A8.7421,8.7421,0,0,1,90,41.324l-5.593-13.46A8.725,8.725,0,0,1,72.136,15.592L58.678,10a8.7238,8.7238,0,0,1-17.356,0l-13.46,5.596a8.7226,8.7226,0,0,1-12.27,12.268L10,41.324a8.7244,8.7244,0,0,1,0,17.357l5.592,13.46A8.7244,8.7244,0,0,1,27.863,84.412L41.322,90a8.7243,8.7243,0,0,1,17.356,0l13.461-5.591A8.7219,8.7219,0,0,1,84.407,72.141L90,58.681A8.7467,8.7467,0,0,1,82.169,49.999Z" transform="translate(-9 -9)"/><path class="e908865f-9bec-4aa6-8230-a498832d18b5" d="M64.061,50.002a13.9761,13.9761,0,0,1-1.598,6.494l6.146,6.149a22.4844,22.4844,0,0,0,.002-25.288l-6.146,6.147A13.994,13.994,0,0,1,64.061,50.002Z" transform="translate(-9 -9)"/><path class="e908865f-9bec-4aa6-8230-a498832d18b5" d="M35.937,50.002a13.9654,13.9654,0,0,1,1.6-6.497l-6.149-6.147a22.4845,22.4845,0,0,0,.006,25.291l6.144-6.15A13.9631,13.9631,0,0,1,35.937,50.002Z" transform="translate(-9 -9)"/><path class="e908865f-9bec-4aa6-8230-a498832d18b5" d="M56.496,62.467a14.0257,14.0257,0,0,1-12.992,0l-6.146,6.146a22.4755,22.4755,0,0,0,25.284-.003Z" transform="translate(-9 -9)"/><path class="e908865f-9bec-4aa6-8230-a498832d18b5" d="M43.501,37.534a14.0183,14.0183,0,0,1,12.996.004l6.146-6.146a22.4829,22.4829,0,0,0-25.29,0Z" transform="translate(-9 -9)"/><path class="e908865f-9bec-4aa6-8230-a498832d18b5" d="M55.624,50.002a5.624,5.624,0,1,1-5.622-5.626A5.6253,5.6253,0,0,1,55.624,50.002Z" transform="translate(-9 -9)"/></svg>