<svg id="a327a2e8-167b-4232-996c-1f9f2cb670cb" data-name="svg3713" xmlns="http://www.w3.org/2000/svg" viewBox="0 0 4087.02 603.65">
  <defs>
    <style>
      .b63d356b-a58b-4305-86bd-548a1a778195 {
        font-size: 285.45px;
        font-family: QuantumRegular, Quantum;
        letter-spacing: 0.04em;
      }

      .f8e271d5-c46b-4e06-98a9-ce9427aba2d6 {
        opacity: 0;
      }
    </style>
  </defs>
  <path id="e9ef07d1-4b88-4cf6-bea6-e08c05f5f7aa" data-name="path3826" d="M222.08,666.16V639.83L200.85,618.4c-11.68-11.79-22.33-22.42-23.68-23.63l-2.45-2.19v99.9h47.36Z" transform="translate(-64.96 -88.83)"/>
  <path id="b57e2248-9ce0-4a39-ac84-3f9f971d4ee1" data-name="path3824" d="M1518.56,691.06c13-1.67,27.12-6.24,37.14-12,13.54-7.8,25.24-18.35,33.18-29.92a104.31,104.31,0,0,0,15.42-34.62c.63-2.5,1.14-4.7,1.14-4.88s-7.77-.34-25.1-.34h-25.09l-.94.79a6.71,6.71,0,0,0-1.51,2.3,40.86,40.86,0,0,1-2.16,4.25,51.17,51.17,0,0,1-20.91,20c-18.2,9.19-38.72,7.6-54.37-4.23a57.59,57.59,0,0,1-8.58-8.36c-.91-1.14-1.73-2.15-1.84-2.24-.85-.7-4.38-7.19-5.9-10.85a62,62,0,0,1-3.23-13.48l-.22-2.8-20.42-20.42c-11.23-11.23-20.48-20.36-20.55-20.28-.22.25-2.36,6.93-3.55,11.08a101.68,101.68,0,0,0-2.56,42.83,100.25,100.25,0,0,0,20.68,46.68,131.73,131.73,0,0,0,15.61,15.55c16.21,12.78,34,19.65,56,21.58a147.38,147.38,0,0,0,17.76-.59Z" transform="translate(-64.96 -88.83)"/>
  <path id="b6b6c97e-0592-4f97-8d20-ac433fa2b50f" data-name="path3818" d="M518.24,689.12A90.82,90.82,0,0,0,533.85,686c12.27-3.51,22.66-8.82,33.95-17.34l2.51-1.89-16.9-16.91L536.5,633l-.86,1.38c-.7,1.12-1.4,1.67-3.72,2.86a50.86,50.86,0,0,1-54.54-5.76c-3.51-2.86-9.4-9.49-10.58-11.92-.14-.27-.52-.93-.86-1.46a52.49,52.49,0,0,1-5.62-14.72,55.83,55.83,0,0,1,1.8-26.94,41,41,0,0,1,4.05-8.53l1.77-3.15-17-17c-9.84-9.82-17.11-16.84-17.2-16.6a3.13,3.13,0,0,1-.54.8c-.86.87-6.65,9.22-8.34,12A95.18,95.18,0,0,0,432,653.12a129.91,129.91,0,0,0,15.46,15.48A105.33,105.33,0,0,0,475,684a108.65,108.65,0,0,0,24.68,5.38,151.24,151.24,0,0,0,18.56-.26Z" transform="translate(-64.96 -88.83)"/>
  <path id="b73d78ab-c054-4e7b-98d4-941a2387dd2c" data-name="path3816" d="M644.48,496.32v79.52l23.68,23.68,23.68,23.68v-5.31l27.6.1c26,.1,27.69.14,29.15.7a16.15,16.15,0,0,1,6.25,4c8.08,8.1,4.67,21.63-6.43,25.5-1.59.56-3.28.59-29,.59H692l-.1-1.12c-.12-1.31,1.36.25-27.5-28.91l-19.92-20.12v91l59.76-.09,59.76-.09,3.38-.85a60,60,0,0,0,19.34-8.4,54.64,54.64,0,0,0,19-21.42,53.43,53.43,0,0,0,5.81-20C813,623.39,808,607.32,798.13,596c-1.17-1.35-2.27-2.65-2.43-2.88s.22-1,1.61-2.6c16.48-18.74,19.13-45.44,6.6-66.5a56.55,56.55,0,0,0-43.26-27.34c-2.16-.23-22.55-.34-59.72-.34ZM692,538.72h54.4l2.12.73a15.66,15.66,0,0,1,10.84,14.73,16.84,16.84,0,0,1-1.59,6.45l-1.47,2.2a15.77,15.77,0,0,1-7.71,5.68c-1.44.54-3.08.59-22.51.69l-21,.1-6.65-6.64L691.83,556l.08-8.65Z" transform="translate(-64.96 -88.83)"/>
  <path id="e9fceac9-66d5-436b-82e3-49d9df054301" data-name="path3812" d="M962.4,688.84a100,100,0,0,0,36.68-13.17c2.57-1.56,9.75-6.55,12-8.38l.72-.57-16.92-16.83L978,633.07l-.8,1.33c-1.74,2.88-11.41,6.72-19.75,7.84a57.35,57.35,0,0,1-19.39-1.08,49.54,49.54,0,0,1-35.81-35.72,42.87,42.87,0,0,1-1.48-12.32,47.46,47.46,0,0,1,6.63-24.85c1.63-2.85,2-3.66,1.64-3.95s-7.87-7.76-17-16.82l-16.58-16.45-.63.79c-1.93,2.43-6.87,9.53-8.43,12.12a93.53,93.53,0,0,0-8.14,17.24c-4.1,12.33-5.48,20.31-5.48,31.65a87.84,87.84,0,0,0,1.31,16.56,99.13,99.13,0,0,0,6.69,22.43,18.46,18.46,0,0,1,1,2.33c0,.13,1,2,2.13,4.07l2.48,4.49c.52,1,4.12,6.36,4.36,6.55a3,3,0,0,1,.5.68c1.13,2,6.66,8.34,10.74,12.29a91.08,91.08,0,0,0,24.43,17.28,90.17,90.17,0,0,0,19.16,7.17,127.74,127.74,0,0,0,15.72,2.7,191.29,191.29,0,0,0,21.12-.56Z" transform="translate(-64.96 -88.83)"/>
  <path id="a08e9d6e-c9b8-48e7-80dc-b252e56ea4c1" data-name="path3810" d="M1206.16,663.6l-.09-26-23.51-23.51L1159,590.56v99h47.2Z" transform="translate(-64.96 -88.83)"/>
  <path id="b0e0cb34-5fc9-42a3-bab7-0a4a9eaf9516" data-name="path3808" d="M1367.12,639.76l-.08-49.84-23.52-23.52L1320,542.88V689.6h47.2Z" transform="translate(-64.96 -88.83)"/>
  <path id="f610591d-8a89-4a22-acc9-df8a6498ee56" data-name="path3806" d="M584,654.63c7-9.37,11-16.46,14.81-25.82a49.55,49.55,0,0,0,1.8-5.19c.23-.93.74-2.92,1.15-4.42a96.07,96.07,0,0,0,1.87-41.12,124.18,124.18,0,0,0-4-16.16c-2.51-7.17-8.47-18.53-12.33-23.52-.41-.53-.86-1.1-1-1.28-1.36-1.84-2.19-2.94-2.47-3.24s-.9-1.06-1.61-1.92a127.9,127.9,0,0,0-10.38-10.59,96.77,96.77,0,0,0-55.2-24.07,129.31,129.31,0,0,0-20.18.14,97.35,97.35,0,0,0-39.2,13.45c-4.31,2.6-12.53,8.44-12.39,8.81,0,.09,7.7,7.74,17,17l17,16.83,1.6-.94a52.39,52.39,0,0,1,20.26-7.31,63.46,63.46,0,0,1,14.31.14A49.64,49.64,0,0,1,555.49,582a47.3,47.3,0,0,1,1.23,14c-.26,9.76-2.12,16.2-7.05,24.55l-1.29,2.18,16.93,16.94c9.31,9.31,17,16.92,17.09,16.92a15,15,0,0,0,1.64-2Z" transform="translate(-64.96 -88.83)"/>
  <path id="ae714ee6-92ab-4843-9a98-52f2debce8d8" data-name="path3804" d="M1027.78,651.35a95.75,95.75,0,0,0,15-84.22,97.41,97.41,0,0,0-16.61-32A134.18,134.18,0,0,0,1012,520.35a94.71,94.71,0,0,0-53.76-23.05,129.31,129.31,0,0,0-20.18.14c-18.05,2.08-33.83,8.69-49.83,20.87l-1.84,1.4,16.83,16.7c9.25,9.19,17,16.76,17.12,16.82a17.07,17.07,0,0,0,3.49-1.72,52.65,52.65,0,0,1,18.39-6.22,65.54,65.54,0,0,1,14.41.13,49.67,49.67,0,0,1,31.79,18.74,49.9,49.9,0,0,1,3,56.1L990,622.78l16.93,16.93,16.93,16.93.57-.72c.31-.4,1.83-2.45,3.37-4.57Z" transform="translate(-64.96 -88.83)"/>
  <path id="ad47857b-9e15-40e9-8462-6f7c10c84010" data-name="path3802" d="M1242.64,544.08,1279,544V497h-193v47h73v23.12l23.44,23.68,23.44,23.68.16-35.16.16-35.16Z" transform="translate(-64.96 -88.83)"/>
  <path id="b164d232-6430-43b7-96bb-c0421a1eb1c2" data-name="path3800" d="M1605.44,572.72c0-.7-2.55-10.19-3.41-12.71a103.15,103.15,0,0,0-7.24-16.49c-2-3.61-4.13-7-4.37-7.2a16.69,16.69,0,0,1-1.44-2.05,25.31,25.31,0,0,0-1.57-2.27c-.2-.21-.73-.86-1.17-1.45s-1-1.31-1.28-1.58-.91-1.08-1.43-1.78A103.24,103.24,0,0,0,1528.64,494c-19-4.24-37.68-2.87-57.06,4.2A126.15,126.15,0,0,0,1452,508.22c-7.53,5-16,12.37-20.21,17.63-1,1.27-2,2.45-2.23,2.63-.54.49-5.08,6.62-5.54,7.48s.21,1.38,17.3,18.48c9.75,9.75,17.79,17.72,17.88,17.72a53.14,53.14,0,0,0,2.67-4.6,51.69,51.69,0,0,1,62-25.43c14.1,4.59,26.17,16,31.2,29.47l.57,1.52h24.91c19.72,0,24.92-.08,24.92-.4Z" transform="translate(-64.96 -88.83)"/>
  <path id="b0b0a155-e87f-4962-9ffe-d24f83cca560" data-name="path3798" d="M1367.12,519.44l.08-22.48H1320v23.2l23.44,23.44L1366.88,567l.08-12.56c0-6.91.12-22.68.16-35Z" transform="translate(-64.96 -88.83)"/>
  <path id="abcc48c0-976b-4030-a17d-7234962293ac" data-name="path3794" d="M1722.56,456.16v-4h-46.32c-37.51,0-879.1-.67-1288-1L292.16,451v8.16l81.68,0c44.92,0,294.8.21,555.28.42s545.56.42,633.52.45l159.92.05Z" transform="translate(-64.96 -88.83)"/>
  <g id="b80f0818-c033-4829-b835-21247b9d1e50" data-name="g3928">
    <path id="b5d0200c-c284-4d50-88d5-fb09e9e118db" data-name="path3792" d="M154.42,418.35a3,3,0,0,0,.78-1.25,5.51,5.51,0,0,1,1.28-1.74,9.68,9.68,0,0,0,1.28-1.5,8,8,0,0,1,1-1.38,5.48,5.48,0,0,0,1-1.51,3.72,3.72,0,0,1,1-1.21,3.19,3.19,0,0,0,1-1.35.74.74,0,0,1,.48-.61.78.78,0,0,0,.48-.63c0-.25.15-.45.34-.45s.54-.49.79-1.1a4.14,4.14,0,0,1,1.06-1.52,17.53,17.53,0,0,0,2.24-2.84,30.59,30.59,0,0,1,2.57-3.35c.51-.51.86-1.11.77-1.34a.49.49,0,0,1,.36-.6.77.77,0,0,0,.51-.61.68.68,0,0,1,.41-.57,12.16,12.16,0,0,0,2-2.51,25.24,25.24,0,0,1,2.43-3.19,4.6,4.6,0,0,0,1.07-1.44,7.5,7.5,0,0,1,1.16-1.69,6.83,6.83,0,0,0,1-1.28,6.35,6.35,0,0,1,.95-1.32,27.77,27.77,0,0,0,2.53-3.37,18.88,18.88,0,0,1,2-2.45,2.94,2.94,0,0,0,.91-1.34,6.26,6.26,0,0,1,1.31-2c2.39-2.8,2.53-3,2.53-3.25s.37-.73,2.1-2.69a3,3,0,0,0,.78-1.36c0-.26.12-.48.28-.48a4.37,4.37,0,0,0,1.2-1.36,19.58,19.58,0,0,1,1.51-2c1.27-1.39,1.27-1.69,0-2.8-.65-.57-1.44-1.29-1.77-1.6a2,2,0,0,0-.92-.56c-.18,0-.32-.11-.32-.24a9.69,9.69,0,0,0-2.46-2.64c-.3,0-9.06-8.7-9.06-9a9.56,9.56,0,0,0-2.59-2.52.29.29,0,0,1-.29-.29,9.8,9.8,0,0,0-2.3-2.87,16.82,16.82,0,0,1-1.71-2.1,9.79,9.79,0,0,0-1.62-1.86,8.69,8.69,0,0,1-1.57-2,11.34,11.34,0,0,0-1.59-2.12,2.43,2.43,0,0,1-.81-1.18c0-.23-.13-.42-.3-.42s-.4-.31-.52-.69a4.3,4.3,0,0,0-1-1.45,8.28,8.28,0,0,1-1.88-2.66,7.53,7.53,0,0,0-1-1.28,4.36,4.36,0,0,1-.93-1.52c-.11-.4-.32-.72-.47-.72s-.29-.22-.29-.48a2.14,2.14,0,0,0-.64-1.12,2.19,2.19,0,0,1-.64-1,.3.3,0,0,0-.29-.32c-.15,0-.38-.4-.5-.88a6.3,6.3,0,0,0-.94-1.84,18.47,18.47,0,0,1-1.47-2.48c-.42-.84-.87-1.52-1-1.52a.3.3,0,0,1-.26-.32,10.48,10.48,0,0,0-1.66-3.52c-.14,0-.26-.25-.26-.56a4.31,4.31,0,0,0-.48-1.48,4.3,4.3,0,0,1-.48-1.32,1.26,1.26,0,0,0-.47-.79,3.21,3.21,0,0,1-.69-1.54,8.1,8.1,0,0,0-.78-2.13,12.21,12.21,0,0,1-1-2.42,6.8,6.8,0,0,0-.66-1.79,6.08,6.08,0,0,1-.5-1.92,3.34,3.34,0,0,0-.64-1.83,1.49,1.49,0,0,1-.43-1.16,6.22,6.22,0,0,0-.45-2,9.73,9.73,0,0,1-.56-2.52,3.71,3.71,0,0,0-.39-1.65,4.48,4.48,0,0,1-.44-1.92,6,6,0,0,0-.48-2.11,6.89,6.89,0,0,1-.43-2.32,8.48,8.48,0,0,0-.49-2.63c-.54-1-.59-21.19,0-21.74a3.59,3.59,0,0,0,.4-1.9c0-1.49.66-5.12,1.94-10.61.19-.84.47-1.52.61-1.52s.32-.75.41-1.67.32-1.72.52-1.78.36-.48.36-.91a14.31,14.31,0,0,1,1.61-4.36,2.61,2.61,0,0,0,.31-1.05,5.29,5.29,0,0,1,.63-1.69c.35-.65,1.1-2.19,1.67-3.42a17,17,0,0,1,1.25-2.4,2.94,2.94,0,0,0,.45-1,2.94,2.94,0,0,1,.45-1,6.32,6.32,0,0,0,1.31-2.24,9.31,9.31,0,0,1,1.62-2.56,2.55,2.55,0,0,0,.4-.64,16.28,16.28,0,0,1,2.06-3.09,7.66,7.66,0,0,0,1-1.57,2.88,2.88,0,0,1,.76-.93,4,4,0,0,0,1-1.34,8.42,8.42,0,0,1,1.48-2,7.9,7.9,0,0,0,1.28-1.55c0-.57,11.43-12,12-12a.44.44,0,0,0,.48-.4c0-.22.43-.69,1-1s1-.75,1-.88.18-.24.4-.25a4.34,4.34,0,0,0,1.5-1.12,5.08,5.08,0,0,1,1.38-1.11,1.39,1.39,0,0,0,.65-.32l1.46-1.23a17.31,17.31,0,0,1,2.55-1.67,10.3,10.3,0,0,0,2.14-1.48,3.86,3.86,0,0,1,1.54-.91c.47-.12.86-.35.86-.5s.19-.29.43-.29a1.89,1.89,0,0,0,1-.64,2,2,0,0,1,1.17-.64c.32,0,.59-.13.59-.29s.42-.39.93-.5a1.7,1.7,0,0,0,1.11-.67.93.93,0,0,1,.83-.46c.36,0,.65-.14.65-.32a.34.34,0,0,1,.36-.32,13.74,13.74,0,0,0,3.48-1.65,3.8,3.8,0,0,1,1.37-.44,2.7,2.7,0,0,0,1.43-.61,5.92,5.92,0,0,1,2.08-.95,4.38,4.38,0,0,0,1.84-.84c0-.15.68-.37,1.51-.5a4.5,4.5,0,0,0,1.94-.66,2.26,2.26,0,0,1,1.37-.43c.52,0,.94-.14.94-.32s.32-.33.72-.33a3.91,3.91,0,0,0,1.52-.47,4.29,4.29,0,0,1,1.71-.47,5.87,5.87,0,0,0,1.92-.45,41.06,41.06,0,0,1,10-1.9,4.77,4.77,0,0,0,2.11-.46,8.78,8.78,0,0,1,3.49-.44,11.93,11.93,0,0,0,3.39-.34c.56-.45,15.79-.45,16.06,0a1.94,1.94,0,0,0,1.33.3,28.38,28.38,0,0,1,6.54.69,8.48,8.48,0,0,0,2.49.43,7.4,7.4,0,0,1,2.63.55.77.77,0,0,0,.76.2,5.76,5.76,0,0,1,2.17.42,29.32,29.32,0,0,0,3.16.82,5.59,5.59,0,0,1,1.6.48,6.2,6.2,0,0,0,1.84.47c.84.12,1.52.33,1.52.46a7.41,7.41,0,0,0,2.32,1,18.11,18.11,0,0,1,2.64,1,5.42,5.42,0,0,0,1.5.45,2.72,2.72,0,0,1,1.28.44,4.65,4.65,0,0,0,1.38.82c3.14,1.45,4.17,2,4.27,2.21a.52.52,0,0,0,.44.24,16.08,16.08,0,0,1,3.45,1.61,10,10,0,0,0,1.51.76,7.28,7.28,0,0,1,1.89,1.19,1.75,1.75,0,0,0,1,.6c.24,0,.43.14.43.32s.27.32.6.32a1.51,1.51,0,0,1,1,.48,1.36,1.36,0,0,0,.84.48.47.47,0,0,1,.44.48c0,.26.15.48.33.48a7.35,7.35,0,0,1,2.5,1.68.58.58,0,0,0,.48.25,5.49,5.49,0,0,1,1.65,1.12c.7.61,1.43,1.22,1.6,1.35s1,.78,1.82,1.44a7.06,7.06,0,0,0,1.83,1.2c.19,0,.35.22.35.48s.15.48.32.48a6.14,6.14,0,0,1,1.68,1.2c2.5,2.2,10.48,10.31,10.48,10.63s4.37.44,4.62,0a16,16,0,0,1,4-.52,19.41,19.41,0,0,0,4-.48,17.69,17.69,0,0,1,4-.48,16.32,16.32,0,0,0,3.84-.47,16,16,0,0,1,3.95-.47l4-.23-.84-.91a13.36,13.36,0,0,1-1.47-2.13,9.67,9.67,0,0,0-.82-1.38,19.7,19.7,0,0,1-2.54-4.08.4.4,0,0,0-.41-.4c-.22,0-.69-.65-1-1.44a3.81,3.81,0,0,0-.87-1.44c-.56,0-.19-2.34.56-3.52A7.63,7.63,0,0,0,351,186c0-.11,1-2.24,2.21-4.72s2.73-5.67,3.36-7.08,1.3-2.78,1.47-3,.54-1,.83-1.6c.58-1.25,2.92-6.15,4.8-10.08a15,15,0,0,1,1.48-2.67c.14-.06.25-.42.25-.81a1.77,1.77,0,0,1,.29-1,8.93,8.93,0,0,0,1.63-3.33,1,1,0,0,1,.29-.79,11.09,11.09,0,0,0,1.63-3.22,1.76,1.76,0,0,1,.43-.78,6.83,6.83,0,0,0,.84-1.56l.42-1.05-4.18-4.07c-2.3-2.23-6.17-6-8.6-8.28s-5.68-5.41-7.2-6.88c-7.26-7-7.12-6.86-7.95-5.86a1.32,1.32,0,0,1-.65.48,5.48,5.48,0,0,0-1.36,1,61.57,61.57,0,0,1-6.14,4.7,16.45,16.45,0,0,0-1.93,1.47,15.31,15.31,0,0,1-1.92,1.45,17,17,0,0,0-1.92,1.43,15.72,15.72,0,0,1-1.91,1.46,18.79,18.79,0,0,0-2.28,1.81,2.28,2.28,0,0,1-1,.72,2,2,0,0,0-.89.64,2,2,0,0,1-.86.64,2.75,2.75,0,0,0-1,.8,2.63,2.63,0,0,1-1.06.8,2,2,0,0,0-.89.64,1.89,1.89,0,0,1-1,.64.46.46,0,0,0-.43.48.49.49,0,0,1-.48.48c-.26,0-.48.14-.48.32s-.19.32-.43.32a1.89,1.89,0,0,0-1,.64,1.89,1.89,0,0,1-1,.64.46.46,0,0,0-.43.48.47.47,0,0,1-.45.48.66.66,0,0,0-.56.24,7.35,7.35,0,0,1-2.5,1.68.38.38,0,0,0-.33.41c0,.23-.47.69-1,1a9.84,9.84,0,0,0-1.46,1,1.53,1.53,0,0,1-.88.42.44.44,0,0,0-.46.41c0,.23-.47.69-1,1a12.73,12.73,0,0,0-2.53,1.87c-.49.46-.92.54-1.89.38a3.13,3.13,0,0,1-1.44-.51,1.86,1.86,0,0,0-1.2-.29,5,5,0,0,1-1.93-.48,8.75,8.75,0,0,0-2.4-.67,4.57,4.57,0,0,1-1.65-.43,5.56,5.56,0,0,0-1.76-.6,56.07,56.07,0,0,1-8.16-2.22,1.84,1.84,0,0,0-.69-.14,12,12,0,0,1-1.92-.49,18.89,18.89,0,0,0-3.39-.86c-.75-.13-1.36-.36-1.36-.49s-.74-.34-1.63-.44a6.07,6.07,0,0,1-2-.51,5.13,5.13,0,0,0-1.81-.54,5.85,5.85,0,0,1-1.74-.47,5.76,5.76,0,0,0-1.6-.46,13.11,13.11,0,0,1-3.9-1.21,3.55,3.55,0,0,1-.6-1.78,6.56,6.56,0,0,0-.46-1.81,5.5,5.5,0,0,1-.45-1.52c-.12-.66-.36-1.2-.52-1.2s-.31-.47-.31-1a5.17,5.17,0,0,0-.5-2,8.65,8.65,0,0,1-.68-2.4,6.11,6.11,0,0,0-.63-2.08,3.55,3.55,0,0,1-.43-1.7,2.63,2.63,0,0,0-.48-1.56,2.9,2.9,0,0,1-.48-1.71,2.4,2.4,0,0,0-.29-1.42,3.19,3.19,0,0,1-.51-1.46,3.19,3.19,0,0,0-.51-1.46,1.52,1.52,0,0,1-.29-1,3.1,3.1,0,0,0-.44-1.5,6.68,6.68,0,0,1-.66-2.15c-.12-.84-.34-1.52-.48-1.52s-.37-.83-.5-1.84a4.61,4.61,0,0,0-.56-2,4.09,4.09,0,0,1-.49-1.91,4.73,4.73,0,0,0-.6-2.13,2.22,2.22,0,0,1-.43-1.35,1.65,1.65,0,0,0-.3-1.11,3.49,3.49,0,0,1-.52-1.62c-.12-.79-.34-1.43-.5-1.43s-.28-.49-.28-1.08a2.23,2.23,0,0,0-.44-1.45,5,5,0,0,1-.66-2.28c-.11-1-.35-1.91-.52-1.91s-.3-.26-.3-.59c0-.53-.24-.57-2.64-.43a10.06,10.06,0,0,0-2.8.38,16,16,0,0,1-3.52.46c-5.46.37-6.76.49-7,.66s-5.74.81-12.32,1.46c-1.58.16-3.17.37-3.52.47a33.59,33.59,0,0,1-3.45.44c-2.15.19-2.91.39-3.24.84a10.54,10.54,0,0,0-.63,3.31,7.08,7.08,0,0,1-.61,3c-.31.2-.3.25,0,.26.47,0,.55,1.18.09,1.33a7.94,7.94,0,0,0-.48,2.81,8.27,8.27,0,0,1-.48,2.89,1.56,1.56,0,0,0-.27,1.14c.08,1.87-.37,6.35-.66,6.53a15.9,15.9,0,0,0-.52,3.94,14.77,14.77,0,0,1-.48,3.76,14.39,14.39,0,0,0-.47,3.6,19.8,19.8,0,0,1-.49,3.92,13.5,13.5,0,0,0-.44,3.2c-.11,1.71-.33,2.92-.55,3s-.22.21.07.39.37.39,0,.92a10.09,10.09,0,0,0-.57,3.12,8.75,8.75,0,0,1-.48,2.79c-.43.42-.39,1.46.05,1.46.24,0,.26.13,0,.4a4.85,4.85,0,0,0-.5,1.6,2.39,2.39,0,0,1-1.83,2.32,10.68,10.68,0,0,0-2.07,1.1,27,27,0,0,1-3,1.61,6.3,6.3,0,0,0-1.68.94,4.27,4.27,0,0,1-1.36.83,28.55,28.55,0,0,0-2.78,1.52,6.68,6.68,0,0,1-1.86.88,2.31,2.31,0,0,0-1.1.62,12.48,12.48,0,0,1-2.46,1.5,14,14,0,0,0-2.22,1.29,7.27,7.27,0,0,1-2,1c-.87.31-1.58.71-1.58.89s-2.24,1.44-2.88,1.44a.3.3,0,0,0-.32.26c0,.3-2.59,1.66-3.15,1.66a.34.34,0,0,0-.37.32c0,.18-.22.32-.48.32s-.48.12-.48.26c0,.4-3,1.66-3.9,1.66a1.81,1.81,0,0,1-1.22-.48,1.36,1.36,0,0,0-.84-.48c-.24,0-.44-.11-.44-.24s-.29-.39-.64-.56c-.89-.44-5.59-3.25-7.52-4.49-.88-.56-2.05-1.26-2.61-1.54a8.25,8.25,0,0,1-1.44-.92,10.39,10.39,0,0,0-1.91-1.13,7.62,7.62,0,0,1-1.88-1.2,1.31,1.31,0,0,0-.84-.48c-.24,0-.44-.11-.44-.24s-.47-.44-1-.68a18.88,18.88,0,0,1-3.76-2.32,3.23,3.23,0,0,0-1-.44,3,3,0,0,1-1-.44,8.77,8.77,0,0,0-2.55-1.64.32.32,0,0,1-.33-.32.3.3,0,0,0-.28-.32,23.79,23.79,0,0,1-3.82-2.08c-.3-.18-1.22-.74-2.06-1.23a4.43,4.43,0,0,1-1.52-1.2c0-.16-.25-.29-.56-.29a14.28,14.28,0,0,1-4.19-2.64c-.06-.13-.37-.24-.69-.24a1.76,1.76,0,0,1-1-.4,12.18,12.18,0,0,0-2.75-1.72c-1.06-.53-1.07-.53-2,.47-.5.55-1.58,1.87-2.4,2.93a8.6,8.6,0,0,1-1.77,1.92c-.16,0-.52.44-.8,1a19.88,19.88,0,0,1-2.17,2.84c-.91,1-2.09,2.41-2.62,3.09s-1.64,2-2.48,2.91a11,11,0,0,0-1.52,1.94,5.36,5.36,0,0,1-1.08,1.36,32.64,32.64,0,0,0-2.27,2.71,22.09,22.09,0,0,1-1.57,1.92A10.84,10.84,0,0,0,98,164c-1,1.23-2.8,3.46-4.13,5a6.1,6.1,0,0,0-1,1.42A38.94,38.94,0,0,0,97.32,176a8.82,8.82,0,0,1,1.24,1.42,7.1,7.1,0,0,0,1,1.27c.57.6,1.83,2.05,2.8,3.2s2.35,2.75,3.08,3.54c2.13,2.33,3.64,4.25,3.64,4.62a.4.4,0,0,0,.4.37,5.51,5.51,0,0,1,1.68,1.6c1.74,2.17,3.62,4.33,5,5.73a25.74,25.74,0,0,1,1.76,2c.35.48,1.19,1.47,1.86,2.2s1.61,1.82,2.08,2.44,1.48,1.79,2.23,2.59,1.62,1.75,1.92,2.11l1.67,2c2.33,2.71,2.26,2.55,1.8,3.71a11.59,11.59,0,0,0-1,2.82,52.8,52.8,0,0,1-1.81,5.7,11,11,0,0,0-.6,2.31,6.61,6.61,0,0,1-.52,1.81c-.88,2-1,2.36-2.07,6.64a5.88,5.88,0,0,1-.63,1.63,5.57,5.57,0,0,0-.5,1.85c-.12.82-.32,1.49-.45,1.49s-.34.54-.46,1.2a6.81,6.81,0,0,1-.42,1.5,3.27,3.27,0,0,0-.27,1,6.1,6.1,0,0,1-.58,1.74,5,5,0,0,0-.5,1.68,4.14,4.14,0,0,1-.47,1.56,8.76,8.76,0,0,0-.68,2.08,5.41,5.41,0,0,1-.45,1.51,4.37,4.37,0,0,0-.44,1.2c-.14.59-.42.88-.85.88s-.63.14-.63.32-.34.32-.76.32a1.67,1.67,0,0,0-1.14.45,4,4,0,0,1-1.94.67,4,4,0,0,0-1.94.67,1.67,1.67,0,0,1-1.14.45,3.56,3.56,0,0,0-1.32.27,14.48,14.48,0,0,1-4,1.51,3.27,3.27,0,0,0-1.56.65,1.62,1.62,0,0,1-1.13.45,3.56,3.56,0,0,0-1.32.27,14.48,14.48,0,0,1-4,1.51,3.27,3.27,0,0,0-1.56.65,2.17,2.17,0,0,1-1.45.45c-.59,0-1.08.14-1.08.32s-.26.32-.57.32a2.6,2.6,0,0,0-1.2.44,6,6,0,0,1-2,.66,3.66,3.66,0,0,0-1.72.68,1.85,1.85,0,0,1-1.28.46,1.65,1.65,0,0,0-1.08.28,2.7,2.7,0,0,1-1.3.5c-.61.11-1.12.33-1.12.47s-.66.35-1.46.46a4.21,4.21,0,0,0-1.94.69,2.37,2.37,0,0,1-1.42.48c-.52,0-.94.13-.94.29s-.47.4-1,.52a4.58,4.58,0,0,0-1.36.47,5.42,5.42,0,0,1-1.5.45c-.64.11-1.22.36-1.28.54s-.72.41-1.47.51-1.35.3-1.35.44-.47.35-1,.47a4.32,4.32,0,0,0-1.44.55c-.47.37-.55,4.16-.11,5a23.86,23.86,0,0,1,.53,4.38,20.46,20.46,0,0,0,.45,4c.27.2.91,3.73,1.31,7.36.17,1.5.47,3.94.66,5.44s.43,3.76.51,5a5.35,5.35,0,0,0,.44,2.32c.16,0,.29.7.29,1.56,0,2.2.32,3.54.92,3.86a33.32,33.32,0,0,0,5.15.48c3.06.13,4.72.33,4.9.59s.31.3.44,0c.19-.47,1.12-.53,1.57-.11.27.26,9,.81,11.16.7a1.59,1.59,0,0,1,1.12.24c.17.27,8.37.8,10.85.71a2.65,2.65,0,0,1,1.44.26,37.81,37.81,0,0,0,6.13.52,40.54,40.54,0,0,1,6.08.48,15.17,15.17,0,0,0,3.68.35,15.67,15.67,0,0,1,3.77.39,5.15,5.15,0,0,1,.94,1.46,7.29,7.29,0,0,0,1,1.58,3.47,3.47,0,0,1,.62,1.28,2.74,2.74,0,0,0,.4,1,19.61,19.61,0,0,1,2,3.44,28.06,28.06,0,0,0,1.48,2.56,7.11,7.11,0,0,1,.87,1.68,4,4,0,0,0,.65,1.28,15.48,15.48,0,0,1,1.2,2.08,53.92,53.92,0,0,0,3.26,5.92,4,4,0,0,1,.65,1.28,10.45,10.45,0,0,0,1.08,2.08,20.25,20.25,0,0,1,1.46,2.72,7,7,0,0,0,1,1.8,1.11,1.11,0,0,1,.42.65,13.25,13.25,0,0,0,1.85,3.54c.89,1.25.89,1.42-.09,3-.45.7-.74,1.27-.65,1.27a12.14,12.14,0,0,1-1.11,2.48,16.92,16.92,0,0,0-1.28,2.88c0,.22-.13.4-.29.4s-.37.36-.48.8-.34.8-.52.8-.31.24-.31.52a10.21,10.21,0,0,1-1.68,3.59.67.67,0,0,0-.24.57,9.2,9.2,0,0,1-1.68,3.27.63.63,0,0,0-.24.54,39.28,39.28,0,0,1-2.11,4.7c-1.17,2.34-2.57,5.15-3.11,6.25a6.88,6.88,0,0,1-1.25,2c-.14,0-.25.25-.24.56a29.31,29.31,0,0,1-2,4.56c-1.09,2.2-2.07,4.22-2.19,4.48s-.55,1.13-1,1.92-.84,1.66-1,1.92-.55,1.13-1,1.92c-1.41,2.79-1.64,3.29-1.55,3.35L124,403l3.52,1.93,4.32,2.39a24.08,24.08,0,0,1,3.24,2,.54.54,0,0,0,.4.29,1.24,1.24,0,0,1,1.23.37,16.3,16.3,0,0,0,3.61,2.15c1.06.54,2.64,1.4,3.52,1.91s2.61,1.46,3.84,2.11a26.23,26.23,0,0,1,2.72,1.59,8.23,8.23,0,0,0,2.82,1.43,2.67,2.67,0,0,0,1.2-.84Z" transform="translate(-64.96 -88.83)"/>
    <g id="b9e62232-5bf4-4d88-babe-b11ad28ce58e" data-name="g3863">
      <path id="fefae5da-8732-4e0e-98f5-2eab175ce1f7" data-name="path3790" d="M1403.52,386.1V359.73l-23.67-23.79-23.66-23.78,0,50.16v50.16h47.36V386.1Z" transform="translate(-64.96 -88.83)"/>
      <path id="f76488a9-4e15-44b9-ad51-985ae35646f5" data-name="path3788" d="M1355.52,217.28v70l61.8,61.63,61.81,61.63,36.51,0h36.52l-14.56-14.42c-8-7.93-24.64-24.35-37-36.49s-22.44-22.25-22.49-22.45,1-.39,3.5-.43a59.69,59.69,0,0,0,34.47-12.3c3.77-2.86,9.53-8.73,11.56-11.8.26-.39.62-.88.8-1.09a16.49,16.49,0,0,0,1.76-2.57,13.41,13.41,0,0,1,1.08-1.85,49.72,49.72,0,0,0,4.07-8.17c.36-1,.77-2.13.92-2.48a46,46,0,0,0,2.43-8.8c.09-.62.3-1.84.47-2.72s.38-2.54.48-3.68.24-2.51.31-3a85.14,85.14,0,0,0-.34-13.92c-2.78-17.55-14.05-33.19-29.5-40.92a56.15,56.15,0,0,0-17.24-5.47c-3.81-.64-4.92-.65-70.63-.65Zm93.11,49.28h42.24l.64,1.27c.56,1.09.65,1.88.65,5.68,0,4.47.71,5.09-.61,8.75-.39,1.23-1.47,2.22-1.84,3.08a15.86,15.86,0,0,1-6.56,5.51,11.71,11.71,0,0,1-5.11,1.22l-2.45.18-4.12,0-20.19.07-19.79,0-2.21-2.14-11.44-11.44c-6.29-6.29-11.44-11.62-11.44-11.84s8.57-.4,42.23-.4Z" transform="translate(-64.96 -88.83)"/>
    </g>
    <g id="ad969f83-c630-40d9-ab54-c237298bdc1a" data-name="g3832">
      <path id="b5366722-81c0-4c56-997c-33cb2b4ac154" data-name="path3784" d="M289.6,378.32V347l-23.68-23.68-23.68-23.68V409.6H289.6Z" transform="translate(-64.96 -88.83)"/>
      <path id="f4a53804-835f-4262-9d7f-3dc5edd9e2e4" data-name="path3782" d="M435.84,313.28V217h-7.52l-44.56,44.56L339.2,306.08l-44.56-44.56L250.08,217h-7.2v59.73L291,325l48.14,48.29L363.42,349c13.34-13.33,24.37-24.24,24.5-24.24s.24,19.08.24,42.4v42.4h47.68Z" transform="translate(-64.96 -88.83)"/>
    </g>
    <g id="a6ab01cc-cd2c-41df-97dc-bf9922b80963" data-name="g3859">
      <path id="f54ec15c-f0a1-45e5-8a15-09a0d328c1a7" data-name="path3778" d="M642.24,386.08l-23.52-23.52H615c-3.11,0-3.76-.08-3.93-.51-.1-.27-.19-33-.19-72.8V217H563.52V409.6H665.76Z" transform="translate(-64.96 -88.83)"/>
      <path id="b9b197a6-ca30-4f30-b5b0-a68f82c5e944" data-name="path3776" d="M697.92,386.08V362.56H641.76l23.52,23.52L688.8,409.6h9.12Z" transform="translate(-64.96 -88.83)"/>
    </g>
    <g id="e940c14f-2eb5-4533-a74f-72e0140ed7a4" data-name="g3855">
      <path id="ec62d900-4f35-48c9-b556-33d4b1699899" data-name="path3774" d="M817,386.08l-23.52-23.52H789.9c-2.32,0-3.66-.13-3.92-.38s-.38-16.91-.38-72.8V217h-47l-.08,96.32-.08,96.32H840.48Z" transform="translate(-64.96 -88.83)"/>
      <path id="ad28b0d2-90d2-4301-a687-6ef3a111be87" data-name="path3772" d="M872.64,386.08V362.56H816.48L840,386.08l23.52,23.52h9.12Z" transform="translate(-64.96 -88.83)"/>
    </g>
    <path id="bca45cfa-1f5a-4966-94bf-2c168a37fb14" data-name="path3770" d="M913.28,216.32v79.52l23.51,23.5,23.5,23.51.09-2.39.1-2.38,25.76-.09c14.58-.05,26.85,0,28.28.21a16,16,0,0,1,8.32,3.76c8.68,8.15,5.83,21.87-5.43,26.11l-1.89.72-27.15.1c-20.38.08-27.26,0-27.6-.27a2.14,2.14,0,0,1-.46-1.38c0-.89-2.58-3.59-23.51-24.68l-23.49-23.68,0,45.36v45.37l59.44-.08,59.44-.09,3.17-.72c15.24-3.48,28.09-12.28,36.13-24.76a58.68,58.68,0,0,0,7.25-16.44c2.19-8.3,2.18-19.6,0-28.48a58.76,58.76,0,0,0-12.24-23.52,13.63,13.63,0,0,1-2.1-2.81,14.93,14.93,0,0,1,2.2-3A59,59,0,0,0,1080,279.14a81.72,81.72,0,0,0-.48-17.06,58.61,58.61,0,0,0-9.33-21.63c-1.3-1.86-2.71-3.77-3.14-4.24l-2-2.25a49.33,49.33,0,0,0-4-3.71,58,58,0,0,0-32-13.59c-2.16-.23-22.5-.34-59.56-.34Zm47.2,42.4h27.36c26,0,27.45,0,29.12.61,6.85,2.35,10.91,7.79,10.91,14.59a14.5,14.5,0,0,1-4.41,10.66,14.9,14.9,0,0,1-6.05,3.81c-1.87.7-2.12.71-22.82.82l-20.94.11L967,282.64,960.31,276l.08-8.62Z" transform="translate(-64.96 -88.83)"/>
    <path id="e80d3722-caf2-4edb-bdb3-d7bf9508d70f" data-name="path3764" d="M1640,378.48l0-31.12-15.42-15.56c-8.49-8.56-19.14-19.2-23.67-23.66l-8.24-8.09V409.6H1640V378.48Z" transform="translate(-64.96 -88.83)"/>
    <path id="a69cfcfc-d12c-4f08-9298-37aed7941cad" data-name="path3762" d="M1770.24,310.64v-99l-23.68,23.68L1722.88,259V299.1c0,22-.12,40.13-.26,40.22s-28-27.55-61.84-61.42l-61.58-61.58h-6.88v60L1659,343l66.64,66.64h44.64Z" transform="translate(-64.96 -88.83)"/>
    <g id="f9ef3968-c74a-468c-b789-1fcea3ba3f61" data-name="g3836">
      <path id="f56c2e78-09fe-466e-aa0f-021b00b484d2" data-name="path3780" d="M523.2,359.92V310.24L499.36,286.4l-23.84-23.84v147H523.2Z" transform="translate(-64.96 -88.83)"/>
      <path id="af7dcb96-0ccf-40a1-8b9c-b050047b351b" data-name="path3758" d="M523.2,252.32V217H475.52v23.2l23.76,23.76c13.07,13.07,23.79,23.76,23.84,23.76s.08-15.91.08-35.36Z" transform="translate(-64.96 -88.83)"/>
    </g>
    <g id="a50f5dbd-3459-44f8-8db5-a42d765f99b0" data-name="g3851">
      <path id="edd5f5a7-65dd-4271-b655-3b236f6ac091" data-name="path3766" d="M1227,409.12c10.93-1.28,18.15-3.34,30.83-8.81l1.7-.74-18.79-18.79c-16.3-16.3-18.88-18.76-19.37-18.45-.73.46-10.29-.18-13.72-.92a49.63,49.63,0,0,1-37.91-36.29,52.53,52.53,0,0,1-1.65-12.39l-.22-4.88-23.46-23.6L1121,260.64v28c0,32.58.12,35.22,2.49,45.89a100.42,100.42,0,0,0,15.56,34.6c.53.73,1.19,1.64,1.45,2s.7,1,1,1.3l1.44,1.78c8.83,11,22.56,21.41,36,27.33a91.08,91.08,0,0,0,37.44,8,102.33,102.33,0,0,0,10.72-.45Z" transform="translate(-64.96 -88.83)"/>
      <path id="a1d51f1e-3621-4590-a597-f56558392a9c" data-name="path3760" d="M1276.51,390a103,103,0,0,0,15.69-15.16,101.37,101.37,0,0,0,21.37-48.47c.89-6.31,1-11.92,1-59.59v-49.5l-1-.16c-.58-.09-11.3-.22-23.84-.28l-22.8-.11v49.62c0,53,0,52.81-1.6,59.07a49.7,49.7,0,0,1-8.36,17.32c-3.55,4.67-10.19,10.77-14.21,13.08l-1.76,1,16.89,17.09c9.28,9.39,17,17.08,17.07,17.09a8.42,8.42,0,0,0,1.6-1Z" transform="translate(-64.96 -88.83)"/>
      <path id="e985b241-44f2-4e61-aeab-6b0c13a66a53" data-name="path3754" d="M1167.36,250.24V216.32H1120V237l23.6,23.6c13,13,23.63,23.6,23.68,23.6s.08-15.26.08-33.92Z" transform="translate(-64.96 -88.83)"/>
    </g>
  </g>
  <g id="a724b1ee-8792-4ae1-9598-46ca8088747c" data-name="g3863-6">
    <path id="b0fca0f5-7cf8-4dc6-add3-3dea119e0c4b" data-name="path3790-4" d="M221.92,665.63V639.26l-23.67-23.79-23.67-23.78V692h47.36V665.63Z" transform="translate(-64.96 -88.83)"/>
    <path id="ad0777a4-919c-4c12-b814-f47d3358b20d" data-name="path3788-4" d="M173.92,496.81v70l61.8,61.63,61.8,61.63,36.52,0h36.52L356,675.64c-8-7.93-24.64-24.35-37-36.5S296.6,616.9,296.55,616.7s1-.39,3.5-.43A59.64,59.64,0,0,0,334.51,604c3.78-2.86,9.53-8.73,11.57-11.8.26-.39.62-.88.8-1.09a16.49,16.49,0,0,0,1.76-2.57,14,14,0,0,1,1.07-1.85,48.94,48.94,0,0,0,4.07-8.17c.37-1,.78-2.13.93-2.48a45.27,45.27,0,0,0,2.42-8.8c.1-.62.31-1.84.47-2.72s.39-2.54.49-3.68.24-2.51.31-3a86.27,86.27,0,0,0-.34-13.92c-2.78-17.55-14.05-33.19-29.5-40.92a56.15,56.15,0,0,0-17.24-5.47c-3.81-.64-4.92-.65-70.64-.65ZM267,546.09h42.23l.65,1.27c.56,1.09.65,1.88.64,5.68,0,4.47.72,5.09-.6,8.75-.39,1.23-1.47,2.22-1.85,3.08a15.88,15.88,0,0,1-6.55,5.51,11.72,11.72,0,0,1-5.12,1.22l-2.44.18-4.13,0-20.18.07-19.79,0-2.21-2.14-11.44-11.44c-6.3-6.29-11.44-11.62-11.44-11.84s8.56-.4,42.23-.4Z" transform="translate(-64.96 -88.83)"/>
  </g>
  <text class="b63d356b-a58b-4305-86bd-548a1a778195" transform="translate(1006.75 600.68) scale(0.98 1)"><tspan class="f8e271d5-c46b-4e06-98a9-ce9427aba2d6">TIC</tspan><tspan x="563.19" y="0">S</tspan></text>
  <text x="-64.96" y="-88.83"/></svg>
